<mxfile host="app.diagrams.net" modified="2024-01-10T08:33:11.495Z" agent="Mozilla/5.0 (X11; Ubuntu; Linux x86_64; rv:121.0) Gecko/20100101 Firefox/121.0" etag="6hgiKZ6NHb7xNsD1DC04" version="22.1.16" type="device">
  <diagram name="Page-1" id="3dUrxeciv27SsikLV2_0">
    <mxGraphModel dx="1144" dy="575" grid="1" gridSize="10" guides="1" tooltips="1" connect="1" arrows="1" fold="1" page="1" pageScale="1" pageWidth="827" pageHeight="1169" math="0" shadow="0">
      <root>
        <mxCell id="0" />
        <mxCell id="1" parent="0" />
        <mxCell id="c7ibrIdj8yS_8EIjCAtS-1" value="Genre" style="swimlane;whiteSpace=wrap;html=1;" vertex="1" parent="1">
          <mxGeometry x="80" y="90" width="200" height="80" as="geometry" />
        </mxCell>
        <mxCell id="c7ibrIdj8yS_8EIjCAtS-8" value="persist($genre)" style="text;html=1;align=center;verticalAlign=middle;resizable=0;points=[];autosize=1;strokeColor=none;fillColor=none;" vertex="1" parent="c7ibrIdj8yS_8EIjCAtS-1">
          <mxGeometry x="10" y="40" width="100" height="30" as="geometry" />
        </mxCell>
        <mxCell id="c7ibrIdj8yS_8EIjCAtS-10" style="edgeStyle=orthogonalEdgeStyle;rounded=0;orthogonalLoop=1;jettySize=auto;html=1;entryX=0.9;entryY=1;entryDx=0;entryDy=0;entryPerimeter=0;" edge="1" parent="c7ibrIdj8yS_8EIjCAtS-1" source="c7ibrIdj8yS_8EIjCAtS-1" target="c7ibrIdj8yS_8EIjCAtS-8">
          <mxGeometry relative="1" as="geometry" />
        </mxCell>
        <mxCell id="c7ibrIdj8yS_8EIjCAtS-2" value="Person" style="swimlane;whiteSpace=wrap;html=1;" vertex="1" parent="1">
          <mxGeometry x="80" y="200" width="200" height="70" as="geometry" />
        </mxCell>
        <mxCell id="c7ibrIdj8yS_8EIjCAtS-9" value="persist($person)" style="text;html=1;align=center;verticalAlign=middle;resizable=0;points=[];autosize=1;strokeColor=none;fillColor=none;" vertex="1" parent="c7ibrIdj8yS_8EIjCAtS-2">
          <mxGeometry x="10" y="30" width="110" height="30" as="geometry" />
        </mxCell>
        <mxCell id="c7ibrIdj8yS_8EIjCAtS-3" value="Movie" style="swimlane;whiteSpace=wrap;html=1;" vertex="1" parent="1">
          <mxGeometry x="80" y="310" width="410" height="350" as="geometry" />
        </mxCell>
        <mxCell id="c7ibrIdj8yS_8EIjCAtS-4" value="Season" style="swimlane;whiteSpace=wrap;html=1;" vertex="1" parent="c7ibrIdj8yS_8EIjCAtS-3">
          <mxGeometry x="30" y="40" width="170" height="60" as="geometry" />
        </mxCell>
        <mxCell id="c7ibrIdj8yS_8EIjCAtS-11" value="persist($season)" style="text;html=1;align=center;verticalAlign=middle;resizable=0;points=[];autosize=1;strokeColor=none;fillColor=none;" vertex="1" parent="c7ibrIdj8yS_8EIjCAtS-4">
          <mxGeometry y="30" width="110" height="30" as="geometry" />
        </mxCell>
        <mxCell id="c7ibrIdj8yS_8EIjCAtS-5" value="Casting" style="swimlane;whiteSpace=wrap;html=1;" vertex="1" parent="c7ibrIdj8yS_8EIjCAtS-3">
          <mxGeometry x="30" y="130" width="170" height="60" as="geometry" />
        </mxCell>
        <mxCell id="c7ibrIdj8yS_8EIjCAtS-12" value="persist($casting)" style="text;html=1;align=center;verticalAlign=middle;resizable=0;points=[];autosize=1;strokeColor=none;fillColor=none;" vertex="1" parent="c7ibrIdj8yS_8EIjCAtS-5">
          <mxGeometry y="30" width="110" height="30" as="geometry" />
        </mxCell>
        <mxCell id="c7ibrIdj8yS_8EIjCAtS-6" value="Relation avec Genre" style="swimlane;whiteSpace=wrap;html=1;" vertex="1" parent="c7ibrIdj8yS_8EIjCAtS-3">
          <mxGeometry x="30" y="220" width="250" height="70" as="geometry" />
        </mxCell>
        <mxCell id="c7ibrIdj8yS_8EIjCAtS-13" value="persist Relation" style="text;html=1;align=center;verticalAlign=middle;resizable=0;points=[];autosize=1;strokeColor=none;fillColor=none;" vertex="1" parent="c7ibrIdj8yS_8EIjCAtS-6">
          <mxGeometry y="30" width="110" height="30" as="geometry" />
        </mxCell>
        <mxCell id="c7ibrIdj8yS_8EIjCAtS-14" value="persist($movie)" style="text;html=1;align=center;verticalAlign=middle;resizable=0;points=[];autosize=1;strokeColor=none;fillColor=none;" vertex="1" parent="c7ibrIdj8yS_8EIjCAtS-3">
          <mxGeometry x="40" y="300" width="110" height="30" as="geometry" />
        </mxCell>
      </root>
    </mxGraphModel>
  </diagram>
</mxfile>
